<?xml version="1.0" encoding="utf-8"?>
<!-- Generator: Adobe Illustrator 17.0.0, SVG Export Plug-In . SVG Version: 6.00 Build 0)  -->
<!DOCTYPE svg PUBLIC "-//W3C//DTD SVG 1.1//EN" "http://www.w3.org/Graphics/SVG/1.1/DTD/svg11.dtd">
<svg version="1.1" id="Layer_1" xmlns="http://www.w3.org/2000/svg" xmlns:xlink="http://www.w3.org/1999/xlink" x="0px" y="0px"
	 width="595.28px" height="841.89px" viewBox="0 0 595.28 841.89" enable-background="new 0 0 595.28 841.89" xml:space="preserve">
<g>
	<path fill="#202020" d="M433.726,354.506c0,75.84-61.481,137.32-137.321,137.32s-137.32-61.481-137.32-137.32
		c0-75.84,61.481-137.321,137.32-137.321S433.726,278.666,433.726,354.506"/>
	<circle fill="#202020" stroke="#000000" stroke-width="0.5" stroke-miterlimit="10" cx="296.406" cy="354.506" r="137.32"/>
	<path fill="#FFFFFF" d="M335.308,332.428c-4.642-5.355-8.971-10.349-13.246-15.28c-10.99,13.519-33.256,17.888-49.568,0.338
		c-4.222,4.808-8.486,9.679-12.793,14.582c-0.004,0.004-0.004-0.005,0,0c13.233,15.111,13.507,27.793,0.955,46.027
		c-0.004,0.005-0.004,0.014,0.001,0.018c3.986,4.534,7.889,8.972,11.752,13.365c11.936-14.342,34.889-17.081,49.962,0.069
		c4.057-4.549,8.381-8.827,12.509-13.455c-12.291-14.218-11.659-33.181,0.427-45.637
		C335.315,332.448,335.315,332.437,335.308,332.428 M359.032,314.82l-4.722,4.406c-2.768,2.44-5.693,3.409-8.558,3.108
		c-2.866-0.301-5.674-1.871-8.209-4.509c-2.646-2.752-4.004-5.796-3.988-8.906c0.017-3.109,1.407-6.285,4.258-9.3
		c4.068-4.303,8.227-8.52,12.41-12.714c4.183-4.195,8.388-8.368,12.545-12.586c0.986-1,1.94-2.03,2.894-3.077
		c0.953-1.047,1.907-2.111,2.89-3.178c0.005-0.005,0.007-0.012,0.007-0.019c0-0.007-0.002-0.014-0.007-0.019
		c-1.409-1.54-2.734-2.989-4.101-4.483c-1.366-1.494-2.776-3.034-4.353-4.758c-0.01-0.011-0.023-0.017-0.037-0.017
		c-0.014-0.001-0.028,0.004-0.038,0.015c-5.529,5.677-10.903,11.196-16.205,16.64c-5.302,5.443-10.529,10.811-15.763,16.186v-23.386
		v-23.386h-6.581h-6.581v3.344v3.193c-0.001,7.63,0.028,15.26,0.036,22.891c0.008,7.63-0.004,15.26-0.088,22.889
		c-0.057,5.183-1.146,9.326-3.2,12.438c-2.054,3.112-5.073,5.195-8.992,6.26c-6.341,1.723-11.99,0.695-16.092-2.504
		c-4.101-3.199-6.657-8.569-6.809-15.532c-0.168-7.716-0.191-15.436-0.173-23.155c0.018-7.72,0.078-15.442,0.074-23.161
		c-0.001-1.057-0.001-2.114-0.001-3.195c0-1.08,0-2.183,0-3.333h-6.654h-6.655v23.721v23.722l-0.087-0.273l-31.77-32.841
		l-8.521,8.243l31.51,32.778c2.662,2.893,3.869,6.038,3.75,9.104c-0.119,3.066-1.564,6.055-4.206,8.636
		c-3.078,3.008-6.315,4.389-9.694,4.119c-3.38-0.27-6.903-2.192-10.557-5.789l-29.35-30.284l-8.913,8.623l28.808,30.043l0.202-0.005
		h-20.931h-20.93v6.325v6.325c7.785,0,15.483-0.017,23.138-0.02c7.655-0.002,15.267,0.009,22.878,0.065
		c1.815,0.014,3.641,0.068,5.462,0.188c1.821,0.121,3.636,0.308,5.428,0.589c4.204,0.66,7.898,2.77,10.549,5.778
		c2.65,3.009,4.256,6.916,4.281,11.17c0.031,5.29-1.668,9.658-4.823,12.729c-3.155,3.071-7.765,4.844-13.557,4.944
		c-7.898,0.136-15.796,0.159-23.696,0.151c-7.899-0.01-15.799-0.051-23.699-0.044c-0.953,0.001-1.906,0.001-2.896,0.001
		c-0.989,0-2.016-0.001-3.114-0.001v6.457v6.457h20.832h20.832c-4.76,4.58-9.516,9.157-14.309,13.768
		c-4.794,4.612-9.623,9.259-14.529,13.981c-0.008,0.007-0.011,0.017-0.011,0.026c-0.001,0.01,0.004,0.02,0.011,0.027
		c1.493,1.557,2.837,2.958,4.191,4.369c1.353,1.41,2.715,2.831,4.243,4.423c0.042,0.043,2.489-2.128,6.066-5.442
		c3.577-3.314,8.286-7.771,12.851-12.302c2.639-2.618,5.273-5.216,7.686-7.555c2.414-2.339,4.607-4.418,6.364-5.999
		c3.874-3.486,8.445-4.352,12.422-3.102c3.978,1.251,7.362,4.618,8.861,9.6c0.878,2.915,0.543,5.442-0.475,7.715
		c-1.019,2.272-2.721,4.291-4.578,6.188l-30.253,29.394l8.765,9.059l31.677-30.062l0.018-0.238L266.22,464l13.192,0.087
		l0.783-57.091c0.3-4.498,2.125-8.14,4.983-10.684c2.858-2.544,6.75-3.99,11.184-4.093c5.816-0.136,10.375,1.425,13.505,4.598
		c3.13,3.173,4.831,7.958,4.93,14.269l-0.019-0.186l0.453,53.187L328.423,464l-0.134-46.991l32.519,33.48l8.236-7.982L336.87,409.18
		c-2.459-2.813-3.594-5.798-3.538-8.712c0.057-2.915,1.304-5.759,3.613-8.293c2.933-3.218,6.288-4.76,9.814-4.607
		s7.223,1.998,10.839,5.556l-0.12-0.109l30.204,30.073l8.95-8.997l-28.494-28.344l20.699-0.093h20.969v-6.34v-6.34
		c-8.339,0-16.546,0.011-24.687,0.012c-8.14,0.001-16.214-0.009-24.287-0.052c-1.601-0.009-3.222-0.058-4.83-0.192
		c-1.609-0.135-3.205-0.355-4.76-0.705c-4.317-0.971-7.629-3.018-9.839-5.943s-3.32-6.726-3.233-11.208
		c0.086-4.384,1.395-8.115,3.768-10.946c2.374-2.831,5.812-4.764,10.155-5.548c1.754-0.317,3.534-0.543,5.323-0.693
		c1.788-0.15,3.585-0.224,5.369-0.237c6.912-0.052,13.823-0.061,20.735-0.06c6.912,0.001,13.824,0.013,20.736,0.002
		c0.95-0.002,1.9-0.041,2.845-0.09c0.945-0.049,1.885-0.108,2.815-0.149v-6.402v-6.403h-21.361l-21.101-0.062l0.082-0.073
		l28.886-27.945l-8.824-9.121l-28.886,27.945"/>
	<path fill="#202020" d="M335.307,332.456c-4.647-5.36-9.144-10.723-13.423-15.659c-14.728,15.199-33.45,16.301-49.568,0.339
		c-4.225,4.81-8.683,9.677-12.991,14.583c13.242,15.117,12.657,32.168,1.331,46.396c3.988,4.536,7.887,8.969,11.752,13.365
		c11.936-14.343,34.89-17.082,49.962,0.068c4.057-4.549,8.256-8.798,12.383-13.426C322.406,364.231,322.736,345.549,335.307,332.456
		"/>
	<path fill="#202020" stroke="#000000" stroke-width="0.5" stroke-miterlimit="10" d="M335.307,332.456
		c-4.647-5.36-9.144-10.723-13.423-15.659c-14.728,15.199-33.45,16.301-49.568,0.339c-4.225,4.81-8.683,9.677-12.991,14.583
		c13.242,15.117,12.657,32.168,1.331,46.396c3.988,4.536,7.887,8.969,11.752,13.365c11.936-14.343,34.89-17.082,49.962,0.068
		c4.057-4.549,8.256-8.798,12.383-13.426C322.406,364.231,322.736,345.549,335.307,332.456z"/>
</g>
<g>
	<g>
		<path fill="#202020" d="M183.968,549.132c0,10.487,0,20.591,0,30.763c-2.265,0-4.445,0-6.668,0c0-15.661,0-31.249,0-47.131
			c10.732,11.224,21.308,22.285,32.077,33.548c0-10.319,0-20.368,0-30.5c2.292,0,4.463,0,6.697,0c0,15.543,0,31.038,0,46.815
			C205.354,571.444,194.788,560.42,183.968,549.132z"/>
		<path fill="#202020" d="M315.029,579.844c0-14.65,0-29.28,0-43.892c0.079-0.072,0.137-0.171,0.196-0.171
			c5.59-0.006,11.204-0.432,16.748,0.599c10.106,1.879,16.951,10.125,17.179,20.446c0.135,6.128-1.379,11.618-5.685,16.161
			c-3.98,4.198-8.858,6.534-14.623,6.789c-4.431,0.196-8.873,0.133-13.311,0.179C315.38,579.956,315.227,579.889,315.029,579.844z
			 M321.743,573.628c3.764,0.039,7.409,0.166,10.892-1.135c6.557-2.449,10.33-8.796,9.702-16.238
			c-0.602-7.126-5.11-12.202-12.054-13.642c-2.835-0.588-5.675-0.525-8.54-0.43C321.743,552.713,321.743,563.097,321.743,573.628z"
			/>
		<path fill="#202020" d="M406.616,579.919c-2.338,0-4.447,0-6.658,0c0-14.72,0-29.404,0-44.202
			c5.473,0.157,10.935-0.517,16.235,1.159c5.33,1.686,8.469,6.123,8.464,11.878c-0.005,5.706-3.317,10.403-8.505,12.061
			c-0.371,0.118-0.742,0.233-1.217,0.382c4.521,6.227,8.975,12.362,13.627,18.771c-1.441,0-2.614,0.012-3.787-0.003
			c-1.475-0.019-3.187,0.394-4.359-0.218c-1.171-0.611-1.82-2.244-2.666-3.451c-3.162-4.518-6.3-9.054-9.482-13.558
			c-0.306-0.433-0.856-0.695-1.292-1.036c-0.12,0.091-0.241,0.182-0.361,0.273C406.616,567.912,406.616,573.849,406.616,579.919z
			 M406.64,556.03c2.876,0.049,5.584,0.072,8.093-1.203c2.508-1.274,3.377-3.493,3.344-6.143c-0.034-2.734-1.25-4.733-3.857-5.765
			c-2.441-0.966-4.979-0.847-7.581-0.731C406.64,546.814,406.64,551.348,406.64,556.03z"/>
		<path fill="#202020" d="M259.962,562.042c0,5.906,0,11.813,0,17.822c-2.269,0-4.435,0-6.674,0c0-14.693,0-29.346,0-44.017
			c3.492,0,6.921-0.125,10.336,0.047c2.052,0.103,4.147,0.456,6.109,1.064c5.415,1.679,8.646,6.798,8.274,12.483
			c-0.402,6.144-4.324,10.369-9.161,11.557c-0.151,0.037-0.288,0.129-0.53,0.24c4.48,6.171,8.931,12.303,13.597,18.729
			c-0.825,0-1.386,0-1.947,0c-1.759,0-3.52-0.04-5.278,0.018c-0.78,0.026-1.222-0.268-1.653-0.893
			c-3.772-5.457-7.569-10.896-11.388-16.319c-0.312-0.443-0.848-0.729-1.28-1.087C260.231,561.805,260.097,561.923,259.962,562.042z
			 M260.018,541.907c0,4.937,0,9.469,0,13.985c2.082,0.392,5.579,0.018,7.465-0.775c2.719-1.143,4.098-3.46,3.926-6.597
			c-0.169-3.082-1.612-5.13-4.567-5.807C264.664,542.213,262.381,542.168,260.018,541.907z"/>
		<path fill="#202020" d="M129.376,535.766c2.297,0,4.41,0,6.722,0c0,0.535,0,1.037,0,1.539c0,8.516-0.018,17.033,0.018,25.549
			c0.006,1.43,0.129,2.883,0.405,4.285c0.962,4.885,4.929,7.702,10.126,7.29c4.769-0.378,7.959-3.55,8.506-8.512
			c0.14-1.268,0.212-2.55,0.214-3.826c0.019-8.277,0.01-16.553,0.01-24.83c0-0.468,0-0.935,0-1.468c2.278,0,4.416,0,6.719,0
			c0,0.474,0,0.898,0,1.323c0,9.156,0.008,18.312-0.002,27.469c-0.011,9.923-8.492,17.338-18.362,16.07
			c-8.681-1.115-14.353-7.571-14.355-16.347c-0.003-8.996-0.001-17.993-0.001-26.989
			C129.376,536.847,129.376,536.374,129.376,535.766z"/>
		<path fill="#202020" d="M362.157,535.79c8.123,0,16.149,0,24.278,0c0,2.05,0,4.103,0,6.286c-5.788,0-11.608,0-17.522,0
			c0,3.537,0,6.947,0,10.523c5.687,0,11.342,0,17.044,0c0,2.187,0,4.208,0,6.366c-5.712,0-11.366,0-17.079,0
			c0,4.92,0,9.703,0,14.621c5.838,0,11.653,0,17.563,0c0,2.148,0,4.164,0,6.282c-8.052,0-16.138,0-24.284,0
			C362.157,565.189,362.157,550.563,362.157,535.79z"/>
		<path fill="#202020" d="M459.333,545.587c-0.489-0.706-0.851-1.282-1.266-1.818c-2.494-3.219-7.716-3.421-10.46-0.415
			c-1.786,1.957-1.775,4.641,0.196,6.411c0.93,0.835,2.081,1.477,3.223,2.013c2.418,1.136,4.966,2.01,7.337,3.231
			c6.435,3.314,8.674,8.516,7.015,15.609c-1.418,6.062-7.076,10.106-13.637,10.158c-8.63,0.069-13.417-5.961-14.131-13.06
			c2.179-0.482,4.376-0.969,6.597-1.461c0.296,1.245,0.503,2.421,0.858,3.55c1.037,3.294,4.056,5.027,7.867,4.582
			c3.249-0.38,5.808-3.054,6.115-6.261c0.308-3.223-0.9-5.671-3.719-7.175c-2.106-1.124-4.338-2.016-6.532-2.972
			c-2.361-1.029-4.634-2.207-6.406-4.117c-4.078-4.396-3.823-10.832,0.383-15.125c5.008-5.11,16.788-6.326,21.928,3.677
			C462.913,543.47,461.12,544.53,459.333,545.587z"/>
		<path fill="#202020" d="M299.664,579.916c-2.209,0-4.317,0-6.517,0c0-14.732,0-29.41,0-44.139c2.184,0,4.293,0,6.517,0
			C299.664,550.463,299.664,565.136,299.664,579.916z"/>
		<path fill="#202020" d="M231.349,535.791c2.242,0,4.379,0,6.593,0c0,14.712,0,29.365,0,44.095c-2.195,0-4.368,0-6.593,0
			C231.349,565.182,231.349,550.561,231.349,535.791z"/>
		<path fill="#202020" d="M407.643,598.794c5.471,5.718,10.796,11.284,16.313,17.051c0-5.297,0-10.369,0-15.518
			c1.254,0,2.346,0,3.51,0c0,7.925,0,15.815,0,24.011c-5.529-5.761-10.889-11.346-16.424-17.113c0,5.352,0,10.448,0,15.624
			c-1.162,0-2.226,0-3.399,0C407.643,614.93,407.643,607.003,407.643,598.794z"/>
		<path fill="#202020" d="M162.357,615.535c0-5.057,0-10.114,0-15.229c1.167,0,2.225,0,3.349,0c0,7.937,0,15.822,0,23.968
			c-5.482-5.715-10.8-11.259-16.366-17.062c0,5.406,0,10.482,0,15.637c-1.23,0-2.29,0-3.437,0c0-7.951,0-15.888,0-24.101
			c5.466,5.712,10.818,11.305,16.17,16.898C162.168,615.609,162.262,615.572,162.357,615.535z"/>
		<path fill="#202020" d="M391.445,623.327c-6.723,0.016-11.865-5.093-11.868-11.793c-0.003-6.451,5.342-11.718,11.902-11.726
			c6.503-0.008,11.815,5.299,11.818,11.805C403.299,618.152,398.079,623.311,391.445,623.327z M391.478,603.127
			c-4.739-0.003-8.216,3.588-8.375,8.331c-0.15,4.476,3.509,8.576,8.246,8.661c4.626,0.083,8.412-3.746,8.427-8.464
			C399.792,606.801,396.22,603.13,391.478,603.127z"/>
		<path fill="#202020" d="M288.902,600.042c3.202,0.228,6.321,0.134,9.302,0.731c5.501,1.101,8.606,5.966,8.155,12.114
			c-0.373,5.093-4.513,9.432-9.657,9.859c-2.569,0.213-5.171,0.037-7.8,0.037C288.902,615.32,288.902,607.856,288.902,600.042z
			 M292.433,603.605c0,5.428,0,10.712,0,16.033c3.766,0.227,7.211-0.256,9.295-3.735c1.735-2.898,1.69-5.983-0.121-8.85
			C299.476,603.677,296.058,603.434,292.433,603.605z"/>
		<path fill="#202020" d="M228.939,622.865c-1.267,0-2.328,0-3.477,0c0-7.54,0-15.027,0-22.79c2.597,0.195,5.167,0.175,7.65,0.627
			c3.133,0.571,4.832,2.801,4.981,5.879c0.148,3.054-1.411,5.441-4.258,6.52c-0.182,0.069-0.365,0.136-0.655,0.245
			c2.271,3.136,4.512,6.231,6.926,9.565c-1.49,0-2.747,0.05-3.995-0.037c-0.294-0.02-0.608-0.463-0.826-0.773
			c-1.749-2.48-3.474-4.977-5.217-7.462c-0.256-0.365-0.569-0.691-1.129-0.925C228.939,616.715,228.939,619.714,228.939,622.865z
			 M228.922,610.577c2.038,0.066,4.08,0.229,5.309-1.734c0.762-1.217,0.787-2.679-0.132-3.842c-1.337-1.691-3.277-1.469-5.177-1.384
			C228.922,605.982,228.922,608.24,228.922,610.577z"/>
		<path fill="#202020" d="M276.695,622.922c-1.455,0-2.645,0.056-3.824-0.035c-0.345-0.027-0.742-0.415-0.973-0.738
			c-1.806-2.54-3.574-5.109-5.366-7.659c-0.228-0.324-0.534-0.592-0.804-0.886c-0.096,0.041-0.191,0.081-0.286,0.122
			c0,3.004,0,6.009,0,9.107c-1.2,0-2.253,0-3.386,0c0-7.468,0-14.928,0-22.555c3.126,0.019,6.346-0.457,9.341,0.986
			c2.222,1.07,3.234,3.038,3.283,5.455c0.05,2.44-0.848,4.456-2.996,5.772c-0.54,0.331-1.147,0.552-1.893,0.904
			C272.041,616.499,274.288,619.6,276.695,622.922z M265.443,603.615c0,2.353,0,4.604,0,6.843c2.363,0.434,4.428-0.137,5.287-1.432
			c0.748-1.128,0.812-2.946,0.01-3.961C269.357,603.315,267.409,603.542,265.443,603.615z"/>
		<path fill="#202020" d="M365.592,622.921c-1.284,0-2.317,0.053-3.338-0.034c-0.287-0.024-0.645-0.41-0.789-0.715
			c-0.596-1.262-1.164-2.542-1.659-3.846c-0.259-0.683-0.657-0.863-1.347-0.853c-2.558,0.036-5.117,0.051-7.674-0.007
			c-0.827-0.018-1.205,0.284-1.497,1.019c-0.484,1.222-1.125,2.383-1.614,3.603c-0.27,0.674-0.667,0.891-1.357,0.851
			c-0.866-0.049-1.736-0.012-2.811-0.012c3.764-8.087,7.441-15.986,11.24-24.149C358.387,606.887,361.934,614.781,365.592,622.921z
			 M351.259,614.124c2.325,0,4.43,0,6.698,0c-1.086-2.49-2.131-4.884-3.272-7.5C353.487,609.245,352.402,611.621,351.259,614.124z"
			/>
		<path fill="#202020" d="M171.241,600.289c4.151,0,8.219,0,12.371,0c0,1.056,0,2.072,0,3.214c-2.942,0-5.88,0-8.906,0
			c0,1.817,0,3.513,0,5.365c2.855,0,5.744,0,8.68,0c0,1.17,0,2.185,0,3.325c-2.925,0-5.781,0-8.702,0c0,2.54,0,4.954,0,7.479
			c2.979,0,5.918,0,8.934,0c0,1.089,0,2.07,0,3.154c-4.084,0-8.177,0-12.377,0C171.241,615.365,171.241,607.88,171.241,600.289z"/>
		<path fill="#202020" d="M432.914,622.844c0-7.561,0-15.019,0-22.536c4.15,0,8.242,0,12.398,0c0,1.074,0,2.091,0,3.257
			c-2.982,0-5.915,0-8.909,0c0,1.812,0,3.476,0,5.274c2.861,0,5.714,0,8.649,0c0,1.146,0,2.163,0,3.332c-2.842,0-5.693,0-8.628,0
			c0,2.56,0,4.97,0,7.512c2.964,0,5.9,0,8.893,0c0,1.112,0,2.095,0,3.162C441.191,622.844,437.098,622.844,432.914,622.844z"/>
		<path fill="#202020" d="M220.66,608.863c0,1.186,0,2.177,0,3.294c-2.89,0-5.749,0-8.704,0c0,2.533,0,4.943,0,7.466
			c2.92,0,5.856,0,8.886,0c0,1.123,0,2.137,0,3.229c-4.079,0-8.176,0-12.349,0c0-7.524,0-15.007,0-22.547c4.119,0,8.183,0,12.346,0
			c0,1.026,0,2.072,0,3.245c-2.95,0-5.888,0-8.903,0c0,1.816,0,3.509,0,5.313C214.834,608.863,217.692,608.863,220.66,608.863z"/>
		<path fill="#202020" d="M323.118,619.658c0,1.178,0,2.162,0,3.199c-4.157,0-8.255,0-12.407,0c0-7.53,0-14.99,0-22.53
			c4.118,0,8.211,0,12.385,0c0,1.011,0,2.03,0,3.219c-2.942,0-5.909,0-8.936,0c0,1.828,0,3.49,0,5.266c2.865,0,5.722,0,8.677,0
			c0,1.155,0,2.202,0,3.375c-2.865,0-5.724,0-8.66,0c0,2.536,0,4.948,0,7.471C317.15,619.658,320.088,619.658,323.118,619.658z"/>
		<path fill="#202020" d="M195.472,624.705c-3.394-8.324-6.642-16.291-9.97-24.454c1.243,0,2.307-0.063,3.354,0.04
			c0.297,0.029,0.66,0.496,0.8,0.84c1.8,4.434,3.564,8.882,5.339,13.326c0.145,0.362,0.306,0.719,0.568,1.332
			c1.161-2.855,2.23-5.48,3.294-8.107c0.884-2.181,1.784-4.356,2.63-6.552c0.249-0.644,0.564-0.956,1.297-0.9
			c0.901,0.069,1.812,0.016,2.897,0.016C202.277,608.405,198.939,616.401,195.472,624.705z"/>
		<path fill="#202020" d="M368.393,600.306c1.195,0,2.262,0,3.424,0c0,6.439,0,12.82,0,19.354c2.222,0,4.354,0,6.54,0
			c0,1.135,0,2.118,0,3.185c-3.326,0-6.617,0-9.965,0C368.393,615.314,368.393,607.857,368.393,600.306z"/>
		<path fill="#202020" d="M280.074,600.285c1.162,0,2.196,0,3.308,0c0,7.5,0,14.963,0,22.535c-1.077,0-2.163,0-3.308,0
			C280.074,615.315,280.074,607.857,280.074,600.285z"/>
	</g>
</g>
</svg>
