<?xml version="1.0" encoding="utf-8"?>
<!-- Generator: Adobe Illustrator 17.0.0, SVG Export Plug-In . SVG Version: 6.00 Build 0)  -->
<!DOCTYPE svg PUBLIC "-//W3C//DTD SVG 1.1//EN" "http://www.w3.org/Graphics/SVG/1.1/DTD/svg11.dtd">
<svg version="1.1" id="Layer_1" xmlns="http://www.w3.org/2000/svg" xmlns:xlink="http://www.w3.org/1999/xlink" x="0px" y="0px"
	 width="841.89px" height="595.28px" viewBox="0 0 841.89 595.28" enable-background="new 0 0 841.89 595.28" xml:space="preserve">
<g>
	<path display="none" fill="#FFFFFF" d="M248.625,349.48c0-34.56,0-69.12,0-103.68c114.88,0,229.76,0,344.64,0
		c0,34.56,0,69.12,0,103.68C478.386,349.48,363.506,349.48,248.625,349.48z M308.617,266.685
		c10.82,11.288,21.386,22.311,32.106,33.495c0-15.777,0-31.273,0-46.815c-2.234,0-4.405,0-6.697,0c0,10.132,0,20.181,0,30.5
		c-10.769-11.263-21.345-22.324-32.077-33.548c0,15.881,0,31.47,0,47.131c2.223,0,4.403,0,6.668,0
		C308.617,287.276,308.617,277.172,308.617,266.685z M439.678,297.397c0.198,0.045,0.351,0.112,0.503,0.111
		c4.437-0.046,8.88,0.017,13.311-0.179c5.765-0.255,10.643-2.591,14.623-6.789c4.307-4.543,5.821-10.033,5.685-16.161
		c-0.228-10.321-7.073-18.567-17.179-20.446c-5.544-1.031-11.157-0.605-16.748-0.599c-0.058,0-0.116,0.099-0.196,0.171
		C439.678,268.116,439.678,282.747,439.678,297.397z M531.265,297.472c0-6.07,0-12.008,0-17.945c0.12-0.091,0.241-0.182,0.361-0.273
		c0.436,0.341,0.986,0.603,1.292,1.036c3.182,4.504,6.32,9.04,9.482,13.558c0.845,1.208,1.495,2.84,2.666,3.451
		c1.172,0.612,2.883,0.199,4.359,0.218c1.173,0.015,2.346,0.003,3.787,0.003c-4.653-6.409-9.107-12.544-13.627-18.771
		c0.475-0.149,0.847-0.263,1.217-0.382c5.188-1.658,8.499-6.355,8.505-12.061c0.005-5.756-3.134-10.193-8.464-11.878
		c-5.3-1.676-10.762-1.002-16.235-1.159c0,14.798,0,29.482,0,44.202C526.817,297.472,528.926,297.472,531.265,297.472z
		 M384.611,279.594c0.134-0.118,0.269-0.236,0.403-0.354c0.432,0.359,0.968,0.644,1.28,1.087c3.82,5.423,7.617,10.862,11.388,16.319
		c0.432,0.624,0.873,0.918,1.653,0.893c1.758-0.058,3.518-0.018,5.278-0.018c0.561,0,1.122,0,1.947,0
		c-4.665-6.426-9.117-12.559-13.597-18.729c0.242-0.112,0.38-0.203,0.53-0.24c4.837-1.188,8.759-5.413,9.161-11.557
		c0.372-5.685-2.858-10.804-8.274-12.483c-1.962-0.608-4.056-0.961-6.109-1.064c-3.415-0.171-6.844-0.047-10.336-0.047
		c0,14.671,0,29.324,0,44.017c2.239,0,4.405,0,6.674,0C384.611,291.407,384.611,285.501,384.611,279.594z M254.024,253.319
		c0,0.608,0,1.081,0,1.554c0,8.996-0.002,17.993,0.001,26.989c0.003,8.776,5.675,15.232,14.355,16.347
		c9.87,1.268,18.351-6.148,18.362-16.07c0.01-9.156,0.002-18.312,0.002-27.469c0-0.425,0-0.849,0-1.323c-2.303,0-4.441,0-6.719,0
		c0,0.532,0,1,0,1.468c0,8.277,0.009,16.553-0.01,24.83c-0.003,1.276-0.075,2.558-0.214,3.826c-0.547,4.963-3.737,8.135-8.506,8.512
		c-5.197,0.412-9.164-2.405-10.126-7.29c-0.276-1.402-0.399-2.855-0.405-4.285c-0.036-8.516-0.018-17.033-0.018-25.549
		c0-0.502,0-1.004,0-1.539C258.435,253.319,256.322,253.319,254.024,253.319z M486.806,253.343c0,14.773,0,29.399,0,44.078
		c8.146,0,16.232,0,24.284,0c0-2.118,0-4.134,0-6.282c-5.91,0-11.725,0-17.563,0c0-4.918,0-9.701,0-14.621
		c5.713,0,11.367,0,17.079,0c0-2.158,0-4.179,0-6.366c-5.702,0-11.357,0-17.044,0c0-3.577,0-6.986,0-10.523
		c5.915,0,11.735,0,17.522,0c0-2.183,0-4.237,0-6.286C502.955,253.343,494.929,253.343,486.806,253.343z M583.982,263.139
		c1.786-1.056,3.579-2.116,5.367-3.173c-5.14-10.003-16.92-8.786-21.928-3.677c-4.206,4.292-4.461,10.729-0.383,15.125
		c1.772,1.91,4.045,3.088,6.406,4.117c2.193,0.956,4.425,1.848,6.532,2.972c2.82,1.504,4.028,3.952,3.719,7.175
		c-0.307,3.207-2.866,5.881-6.115,6.261c-3.811,0.445-6.83-1.288-7.867-4.582c-0.355-1.129-0.562-2.305-0.858-3.55
		c-2.221,0.492-4.418,0.979-6.597,1.461c0.714,7.099,5.501,13.129,14.131,13.06c6.561-0.052,12.219-4.097,13.637-10.158
		c1.659-7.093-0.58-12.295-7.015-15.609c-2.371-1.221-4.918-2.095-7.337-3.231c-1.142-0.536-2.293-1.178-3.223-2.013
		c-1.971-1.77-1.981-4.454-0.196-6.411c2.744-3.006,7.967-2.804,10.46,0.415C583.131,261.857,583.493,262.433,583.982,263.139z
		 M424.313,297.469c0-14.78,0-29.453,0-44.139c-2.224,0-4.333,0-6.517,0c0,14.729,0,29.407,0,44.139
		C419.995,297.469,422.103,297.469,424.313,297.469z M355.997,253.344c0,14.77,0,29.391,0,44.095c2.224,0,4.398,0,6.593,0
		c0-14.73,0-29.382,0-44.095C360.376,253.344,358.239,253.344,355.997,253.344z M532.292,316.347c0,8.21,0,16.136,0,24.054
		c1.173,0,2.237,0,3.399,0c0-5.176,0-10.272,0-15.624c5.535,5.768,10.895,11.353,16.424,17.113c0-8.196,0-16.086,0-24.011
		c-1.163,0-2.256,0-3.51,0c0,5.149,0,10.221,0,15.518C543.088,327.631,537.763,322.065,532.292,316.347z M287.006,333.087
		c-0.095,0.037-0.19,0.074-0.284,0.111c-5.352-5.593-10.704-11.186-16.17-16.898c0,8.213,0,16.15,0,24.101c1.147,0,2.207,0,3.437,0
		c0-5.154,0-10.231,0-15.637c5.566,5.803,10.885,11.347,16.366,17.062c0-8.146,0-16.031,0-23.968c-1.124,0-2.183,0-3.349,0
		C287.006,322.973,287.006,328.03,287.006,333.087z M516.094,340.88c6.634-0.016,11.854-5.175,11.851-11.714
		c-0.002-6.507-5.315-11.814-11.818-11.805c-6.559,0.008-11.905,5.275-11.902,11.726C504.229,335.786,509.37,340.895,516.094,340.88
		z M413.55,317.595c0,7.814,0,15.278,0,22.741c2.63,0,5.231,0.176,7.8-0.037c5.144-0.427,9.284-4.766,9.657-9.859
		c0.451-6.148-2.654-11.013-8.155-12.114C419.872,317.729,416.753,317.823,413.55,317.595z M353.587,340.418c0-3.151,0-6.151,0-9.15
		c0.561,0.234,0.873,0.56,1.129,0.925c1.743,2.484,3.467,4.982,5.217,7.462c0.218,0.309,0.532,0.752,0.826,0.773
		c1.248,0.086,2.505,0.037,3.995,0.037c-2.414-3.334-4.655-6.429-6.926-9.565c0.291-0.109,0.473-0.176,0.655-0.245
		c2.848-1.079,4.406-3.466,4.258-6.52c-0.149-3.078-1.848-5.307-4.981-5.879c-2.483-0.453-5.053-0.433-7.65-0.627
		c0,7.763,0,15.25,0,22.79C351.259,340.418,352.321,340.418,353.587,340.418z M401.344,340.475
		c-2.407-3.322-4.655-6.423-6.904-9.528c0.746-0.352,1.353-0.573,1.893-0.904c2.148-1.317,3.045-3.332,2.996-5.772
		c-0.049-2.417-1.061-4.384-3.283-5.455c-2.996-1.443-6.215-0.968-9.341-0.986c0,7.627,0,15.087,0,22.555c1.133,0,2.187,0,3.386,0
		c0-3.098,0-6.102,0-9.107c0.096-0.041,0.191-0.081,0.286-0.122c0.27,0.294,0.576,0.563,0.804,0.886
		c1.793,2.55,3.56,5.119,5.366,7.659c0.23,0.324,0.627,0.712,0.973,0.738C398.699,340.532,399.889,340.475,401.344,340.475z
		 M490.24,340.474c-3.658-8.141-7.204-16.034-10.848-24.142c-3.799,8.162-7.476,16.062-11.24,24.149
		c1.075,0,1.946-0.037,2.811,0.012c0.69,0.039,1.087-0.177,1.357-0.851c0.489-1.221,1.13-2.381,1.614-3.603
		c0.291-0.735,0.67-1.038,1.497-1.019c2.557,0.057,5.116,0.043,7.674,0.007c0.69-0.01,1.088,0.171,1.347,0.853
		c0.496,1.305,1.063,2.584,1.659,3.846c0.144,0.305,0.502,0.691,0.789,0.715C487.923,340.527,488.956,340.474,490.24,340.474z
		 M295.889,317.841c0,7.592,0,15.077,0,22.538c4.199,0,8.293,0,12.377,0c0-1.084,0-2.065,0-3.154c-3.016,0-5.955,0-8.934,0
		c0-2.525,0-4.94,0-7.479c2.921,0,5.778,0,8.702,0c0-1.14,0-2.155,0-3.325c-2.936,0-5.824,0-8.68,0c0-1.852,0-3.548,0-5.365
		c3.026,0,5.964,0,8.906,0c0-1.142,0-2.158,0-3.214C304.108,317.841,300.04,317.841,295.889,317.841z M557.563,340.396
		c4.183,0,8.277,0,12.403,0c0-1.068,0-2.05,0-3.162c-2.993,0-5.928,0-8.893,0c0-2.541,0-4.952,0-7.512c2.935,0,5.787,0,8.628,0
		c0-1.169,0-2.186,0-3.332c-2.935,0-5.788,0-8.649,0c0-1.797,0-3.462,0-5.274c2.994,0,5.928,0,8.909,0c0-1.165,0-2.183,0-3.257
		c-4.156,0-8.249,0-12.398,0C557.563,325.378,557.563,332.835,557.563,340.396z M345.309,326.415c-2.968,0-5.826,0-8.724,0
		c0-1.804,0-3.497,0-5.313c3.015,0,5.953,0,8.903,0c0-1.173,0-2.219,0-3.245c-4.162,0-8.226,0-12.346,0c0,7.54,0,15.023,0,22.547
		c4.173,0,8.27,0,12.349,0c0-1.093,0-2.106,0-3.229c-3.03,0-5.966,0-8.886,0c0-2.523,0-4.933,0-7.466c2.956,0,5.814,0,8.704,0
		C345.309,328.592,345.309,327.601,345.309,326.415z M447.767,337.211c-3.03,0-5.968,0-8.941,0c0-2.523,0-4.935,0-7.471
		c2.936,0,5.795,0,8.66,0c0-1.173,0-2.22,0-3.375c-2.955,0-5.811,0-8.677,0c0-1.775,0-3.438,0-5.266c3.026,0,5.994,0,8.936,0
		c0-1.188,0-2.207,0-3.219c-4.174,0-8.268,0-12.385,0c0,7.54,0,15,0,22.53c4.152,0,8.25,0,12.407,0
		C447.767,339.373,447.767,338.389,447.767,337.211z M320.12,342.258c3.467-8.305,6.805-16.301,10.211-24.458
		c-1.085,0-1.996,0.052-2.897-0.016c-0.733-0.056-1.049,0.256-1.297,0.9c-0.847,2.196-1.746,4.371-2.63,6.552
		c-1.065,2.627-2.134,5.251-3.294,8.107c-0.262-0.613-0.423-0.969-0.568-1.332c-1.775-4.444-3.54-8.892-5.339-13.326
		c-0.14-0.344-0.503-0.811-0.8-0.84c-1.047-0.103-2.111-0.04-3.354-0.04C313.479,325.968,316.727,333.934,320.12,342.258z
		 M493.042,317.859c0,7.551,0,15.007,0,22.539c3.347,0,6.638,0,9.965,0c0-1.067,0-2.05,0-3.185c-2.186,0-4.318,0-6.54,0
		c0-6.533,0-12.914,0-19.354C495.304,317.859,494.237,317.859,493.042,317.859z M404.723,317.838c0,7.572,0,15.03,0,22.535
		c1.145,0,2.23,0,3.308,0c0-7.572,0-15.035,0-22.535C406.919,317.838,405.885,317.838,404.723,317.838z"/>
	<path fill="#FFFFFF" d="M308.617,266.685c0,10.487,0,20.591,0,30.763c-2.265,0-4.445,0-6.668,0c0-15.661,0-31.249,0-47.131
		c10.732,11.224,21.308,22.285,32.077,33.548c0-10.319,0-20.368,0-30.5c2.292,0,4.463,0,6.697,0c0,15.543,0,31.038,0,46.815
		C330.003,288.996,319.437,277.973,308.617,266.685z"/>
	<path fill="#FFFFFF" d="M439.678,297.397c0-14.65,0-29.28,0-43.892c0.079-0.072,0.137-0.171,0.196-0.171
		c5.59-0.006,11.204-0.432,16.748,0.599c10.106,1.879,16.951,10.125,17.179,20.446c0.135,6.128-1.378,11.618-5.685,16.161
		c-3.98,4.198-8.858,6.534-14.623,6.789c-4.431,0.196-8.873,0.133-13.311,0.179C440.028,297.509,439.875,297.442,439.678,297.397z
		 M446.392,291.181c3.764,0.039,7.409,0.166,10.892-1.135c6.557-2.449,10.33-8.796,9.702-16.238
		c-0.602-7.126-5.11-12.202-12.054-13.642c-2.835-0.588-5.675-0.525-8.54-0.43C446.392,270.266,446.392,280.65,446.392,291.181z"/>
	<path fill="#FFFFFF" d="M384.611,279.594c0,5.906,0,11.813,0,17.822c-2.269,0-4.435,0-6.674,0c0-14.693,0-29.346,0-44.017
		c3.492,0,6.921-0.125,10.336,0.047c2.052,0.103,4.147,0.456,6.109,1.064c5.415,1.679,8.646,6.798,8.274,12.483
		c-0.402,6.144-4.324,10.369-9.161,11.557c-0.151,0.037-0.288,0.129-0.53,0.24c4.48,6.171,8.931,12.303,13.597,18.729
		c-0.825,0-1.386,0-1.947,0c-1.759,0-3.52-0.04-5.278,0.018c-0.78,0.026-1.222-0.268-1.653-0.893
		c-3.772-5.457-7.569-10.896-11.388-16.319c-0.312-0.443-0.848-0.729-1.28-1.087C384.88,279.358,384.745,279.476,384.611,279.594z
		 M384.667,259.46c0,4.937,0,9.469,0,13.985c2.082,0.392,5.579,0.018,7.465-0.775c2.719-1.143,4.098-3.46,3.926-6.597
		c-0.169-3.082-1.612-5.13-4.567-5.807C389.313,259.766,387.03,259.721,384.667,259.46z"/>
	<path fill="#FFFFFF" d="M531.099,279.594c0,5.906,0,11.813,0,17.822c-2.269,0-4.435,0-6.674,0c0-14.693,0-29.346,0-44.017
		c3.492,0,6.921-0.125,10.336,0.047c2.052,0.103,4.147,0.456,6.109,1.064c5.415,1.679,8.646,6.798,8.274,12.483
		c-0.402,6.144-4.324,10.369-9.161,11.557c-0.151,0.037-0.288,0.129-0.53,0.24c4.48,6.171,8.931,12.303,13.597,18.729
		c-0.825,0-1.386,0-1.947,0c-1.759,0-3.52-0.04-5.278,0.018c-0.78,0.026-1.222-0.268-1.653-0.893
		c-3.772-5.457-7.569-10.896-11.388-16.319c-0.312-0.443-0.848-0.729-1.28-1.087C531.368,279.358,531.233,279.476,531.099,279.594z
		 M531.155,259.46c0,4.937,0,9.469,0,13.985c2.082,0.392,5.579,0.018,7.465-0.775c2.719-1.143,4.098-3.46,3.926-6.597
		c-0.169-3.082-1.612-5.13-4.567-5.807C535.801,259.766,533.518,259.721,531.155,259.46z"/>
	<path fill="#FFFFFF" d="M254.024,253.319c2.297,0,4.41,0,6.722,0c0,0.535,0,1.037,0,1.539c0,8.517-0.018,17.033,0.018,25.549
		c0.006,1.43,0.129,2.883,0.405,4.285c0.962,4.885,4.929,7.702,10.126,7.29c4.769-0.378,7.959-3.55,8.506-8.512
		c0.14-1.268,0.212-2.55,0.214-3.826c0.019-8.277,0.01-16.553,0.01-24.83c0-0.468,0-0.935,0-1.468c2.278,0,4.416,0,6.719,0
		c0,0.474,0,0.898,0,1.323c0,9.156,0.008,18.312-0.002,27.469c-0.011,9.923-8.492,17.338-18.362,16.07
		c-8.681-1.115-14.353-7.571-14.355-16.347c-0.003-8.996-0.001-17.993-0.001-26.989C254.024,254.4,254.024,253.927,254.024,253.319z
		"/>
	<path fill="#FFFFFF" d="M486.806,253.343c8.123,0,16.149,0,24.278,0c0,2.05,0,4.103,0,6.286c-5.787,0-11.608,0-17.522,0
		c0,3.537,0,6.947,0,10.523c5.687,0,11.342,0,17.044,0c0,2.187,0,4.208,0,6.366c-5.712,0-11.366,0-17.079,0c0,4.92,0,9.703,0,14.621
		c5.838,0,11.653,0,17.563,0c0,2.148,0,4.164,0,6.282c-8.052,0-16.138,0-24.284,0C486.806,282.742,486.806,268.116,486.806,253.343z
		"/>
	<path fill="#FFFFFF" d="M583.982,263.139c-0.489-0.706-0.851-1.282-1.266-1.818c-2.494-3.219-7.716-3.421-10.46-0.415
		c-1.786,1.957-1.775,4.641,0.196,6.411c0.93,0.835,2.081,1.477,3.223,2.013c2.418,1.136,4.966,2.01,7.337,3.231
		c6.435,3.314,8.674,8.516,7.015,15.609c-1.418,6.062-7.076,10.106-13.637,10.158c-8.63,0.069-13.417-5.961-14.131-13.06
		c2.179-0.483,4.376-0.969,6.597-1.461c0.296,1.245,0.503,2.421,0.858,3.55c1.037,3.294,4.056,5.027,7.867,4.582
		c3.249-0.38,5.808-3.054,6.115-6.261c0.308-3.223-0.9-5.671-3.719-7.175c-2.106-1.124-4.338-2.016-6.532-2.972
		c-2.361-1.029-4.634-2.207-6.406-4.117c-4.078-4.396-3.823-10.832,0.383-15.125c5.008-5.11,16.788-6.326,21.928,3.677
		C587.562,261.023,585.768,262.083,583.982,263.139z"/>
	<path fill="#FFFFFF" d="M424.313,297.469c-2.209,0-4.317,0-6.517,0c0-14.732,0-29.41,0-44.139c2.184,0,4.293,0,6.517,0
		C424.313,268.016,424.313,282.689,424.313,297.469z"/>
	<path fill="#FFFFFF" d="M355.997,253.344c2.242,0,4.379,0,6.593,0c0,14.712,0,29.365,0,44.095c-2.195,0-4.368,0-6.593,0
		C355.997,282.735,355.997,268.113,355.997,253.344z"/>
	<path fill="#FFFFFF" d="M532.292,316.347c5.471,5.718,10.796,11.284,16.313,17.051c0-5.297,0-10.369,0-15.518
		c1.254,0,2.346,0,3.51,0c0,7.925,0,15.815,0,24.011c-5.529-5.761-10.889-11.346-16.424-17.113c0,5.352,0,10.448,0,15.624
		c-1.162,0-2.226,0-3.399,0C532.292,332.482,532.292,324.556,532.292,316.347z"/>
	<path fill="#FFFFFF" d="M287.006,333.087c0-5.057,0-10.114,0-15.229c1.167,0,2.225,0,3.349,0c0,7.937,0,15.822,0,23.968
		c-5.482-5.715-10.8-11.259-16.366-17.062c0,5.406,0,10.482,0,15.637c-1.23,0-2.29,0-3.437,0c0-7.951,0-15.888,0-24.101
		c5.466,5.712,10.818,11.305,16.17,16.898C286.816,333.161,286.911,333.124,287.006,333.087z"/>
	<path fill="#FFFFFF" d="M516.094,340.88c-6.723,0.016-11.865-5.093-11.868-11.793c-0.003-6.451,5.342-11.718,11.902-11.726
		c6.503-0.008,11.815,5.299,11.818,11.805C527.947,335.705,522.728,340.864,516.094,340.88z M516.127,320.68
		c-4.739-0.003-8.216,3.588-8.375,8.331c-0.15,4.476,3.509,8.576,8.246,8.661c4.626,0.083,8.412-3.746,8.427-8.464
		C524.441,324.354,520.869,320.683,516.127,320.68z"/>
	<path fill="#FFFFFF" d="M413.55,317.838c3.236,0.096,6.528-0.1,9.302,0.488c5.501,1.101,8.606,5.966,8.155,12.114
		c-0.373,5.093-4.513,9.432-9.657,9.859c-2.569,0.213-5.171,0.037-7.8,0.037C413.55,332.873,413.55,325.652,413.55,317.838z
		 M417.082,321.158c0,5.428,0,10.712,0,16.033c3.766,0.227,7.211-0.256,9.295-3.735c1.735-2.898,1.69-5.983-0.121-8.85
		C424.125,321.23,420.706,320.987,417.082,321.158z"/>
	<path fill="#FFFFFF" d="M401.344,340.475c-1.455,0-2.645,0.056-3.824-0.035c-0.345-0.027-0.742-0.415-0.973-0.738
		c-1.806-2.541-3.574-5.109-5.366-7.659c-0.228-0.324-0.534-0.592-0.804-0.886c-0.096,0.041-0.191,0.081-0.286,0.122
		c0,3.004,0,6.009,0,9.107c-1.2,0-2.253,0-3.386,0c0-7.468,0-14.928,0-22.555c3.126,0.019,6.346-0.457,9.341,0.986
		c2.222,1.07,3.234,3.038,3.283,5.455c0.05,2.44-0.848,4.456-2.996,5.772c-0.54,0.331-1.147,0.552-1.893,0.904
		C396.689,334.052,398.937,337.153,401.344,340.475z M390.092,321.168c0,2.353,0,4.604,0,6.843c2.363,0.434,4.428-0.137,5.287-1.432
		c0.748-1.128,0.812-2.946,0.01-3.961C394.005,320.867,392.058,321.095,390.092,321.168z"/>
	<path fill="#FFFFFF" d="M364.828,340.489c-1.455,0-2.645,0.056-3.824-0.035c-0.345-0.027-0.742-0.415-0.973-0.738
		c-1.806-2.541-3.574-5.109-5.366-7.659c-0.228-0.324-0.534-0.592-0.804-0.886c-0.096,0.041-0.191,0.081-0.286,0.122
		c0,3.004,0,6.009,0,9.107c-1.2,0-2.253,0-3.386,0c0-7.468,0-14.928,0-22.555c3.126,0.019,6.346-0.457,9.341,0.986
		c2.222,1.07,3.234,3.038,3.283,5.455c0.05,2.44-0.848,4.456-2.996,5.772c-0.54,0.331-1.147,0.552-1.893,0.904
		C360.173,334.066,362.421,337.167,364.828,340.489z M353.576,321.182c0,2.353,0,4.604,0,6.843c2.363,0.434,4.428-0.137,5.287-1.432
		c0.748-1.128,0.812-2.946,0.01-3.961C357.489,320.881,355.542,321.109,353.576,321.182z"/>
	<path fill="#FFFFFF" d="M490.24,340.474c-1.284,0-2.317,0.053-3.338-0.034c-0.287-0.024-0.645-0.41-0.789-0.715
		c-0.596-1.262-1.164-2.542-1.659-3.846c-0.259-0.683-0.657-0.863-1.347-0.853c-2.558,0.036-5.117,0.051-7.674-0.007
		c-0.827-0.018-1.205,0.284-1.497,1.019c-0.484,1.222-1.125,2.383-1.614,3.603c-0.27,0.674-0.667,0.891-1.357,0.851
		c-0.866-0.049-1.736-0.012-2.811-0.012c3.764-8.086,7.441-15.986,11.24-24.149C483.036,324.44,486.583,332.334,490.24,340.474z
		 M475.907,331.677c2.325,0,4.43,0,6.698,0c-1.086-2.49-2.131-4.884-3.273-7.5C478.135,326.798,477.05,329.174,475.907,331.677z"/>
	<path fill="#FFFFFF" d="M295.889,317.841c4.151,0,8.219,0,12.371,0c0,1.056,0,2.072,0,3.214c-2.942,0-5.88,0-8.906,0
		c0,1.817,0,3.513,0,5.365c2.855,0,5.744,0,8.68,0c0,1.17,0,2.185,0,3.325c-2.925,0-5.781,0-8.702,0c0,2.54,0,4.954,0,7.479
		c2.979,0,5.918,0,8.934,0c0,1.089,0,2.07,0,3.154c-4.084,0-8.177,0-12.377,0C295.889,332.918,295.889,325.433,295.889,317.841z"/>
	<path fill="#FFFFFF" d="M557.563,340.396c0-7.561,0-15.019,0-22.536c4.15,0,8.242,0,12.398,0c0,1.074,0,2.091,0,3.257
		c-2.982,0-5.915,0-8.909,0c0,1.812,0,3.476,0,5.274c2.861,0,5.714,0,8.649,0c0,1.146,0,2.163,0,3.332c-2.842,0-5.693,0-8.628,0
		c0,2.56,0,4.97,0,7.512c2.964,0,5.9,0,8.893,0c0,1.112,0,2.095,0,3.162C565.84,340.396,561.746,340.396,557.563,340.396z"/>
	<path fill="#FFFFFF" d="M345.309,326.415c0,1.186,0,2.177,0,3.294c-2.89,0-5.749,0-8.704,0c0,2.533,0,4.943,0,7.466
		c2.92,0,5.856,0,8.886,0c0,1.123,0,2.137,0,3.229c-4.079,0-8.176,0-12.349,0c0-7.524,0-15.007,0-22.547c4.119,0,8.183,0,12.346,0
		c0,1.026,0,2.072,0,3.245c-2.95,0-5.888,0-8.903,0c0,1.816,0,3.509,0,5.313C339.483,326.415,342.341,326.415,345.309,326.415z"/>
	<path fill="#FFFFFF" d="M447.767,337.211c0,1.178,0,2.162,0,3.199c-4.157,0-8.255,0-12.407,0c0-7.53,0-14.99,0-22.53
		c4.118,0,8.211,0,12.385,0c0,1.011,0,2.03,0,3.219c-2.942,0-5.909,0-8.936,0c0,1.828,0,3.49,0,5.266c2.865,0,5.722,0,8.677,0
		c0,1.155,0,2.202,0,3.375c-2.865,0-5.724,0-8.66,0c0,2.536,0,4.948,0,7.471C441.799,337.211,444.736,337.211,447.767,337.211z"/>
	<path fill="#FFFFFF" d="M320.12,342.258c-3.394-8.324-6.641-16.291-9.97-24.454c1.243,0,2.307-0.063,3.354,0.04
		c0.297,0.029,0.66,0.496,0.8,0.84c1.8,4.434,3.564,8.882,5.339,13.326c0.145,0.362,0.306,0.719,0.568,1.332
		c1.161-2.855,2.23-5.48,3.294-8.107c0.884-2.181,1.784-4.356,2.63-6.552c0.249-0.644,0.564-0.956,1.297-0.9
		c0.901,0.069,1.812,0.016,2.897,0.016C326.926,325.957,323.587,333.954,320.12,342.258z"/>
	<path fill="#FFFFFF" d="M493.042,317.859c1.195,0,2.262,0,3.424,0c0,6.439,0,12.82,0,19.354c2.222,0,4.354,0,6.54,0
		c0,1.135,0,2.118,0,3.185c-3.326,0-6.617,0-9.965,0C493.042,332.867,493.042,325.41,493.042,317.859z"/>
	<path fill="#FFFFFF" d="M404.723,317.838c1.162,0,2.196,0,3.308,0c0,7.5,0,14.963,0,22.535c-1.077,0-2.163,0-3.308,0
		C404.723,332.868,404.723,325.41,404.723,317.838z"/>
	<path display="none" fill="#FFFFFF" d="M446.392,291.181c0-10.531,0-20.915,0-31.446c2.864-0.095,5.705-0.157,8.54,0.43
		c6.945,1.44,11.453,6.516,12.054,13.642c0.628,7.442-3.145,13.79-9.702,16.238C453.801,291.347,450.156,291.22,446.392,291.181z"/>
	<path display="none" fill="#FFFFFF" d="M531.288,273.583c0-4.682,0-9.216,0-13.843c2.602-0.116,5.14-0.235,7.581,0.731
		c2.607,1.032,3.823,3.031,3.857,5.765c0.033,2.651-0.835,4.869-3.344,6.143C536.872,273.654,534.164,273.632,531.288,273.583z"/>
	<path display="none" fill="#FFFFFF" d="M384.667,259.46c2.363,0.262,4.646,0.307,6.824,0.806c2.956,0.677,4.398,2.725,4.567,5.807
		c0.172,3.137-1.207,5.455-3.926,6.597c-1.886,0.793-5.384,1.167-7.465,0.775C384.667,268.929,384.667,264.396,384.667,259.46z"/>
	<path display="none" fill="#FFFFFF" d="M516.127,320.68c4.742,0.003,8.314,3.674,8.298,8.527c-0.016,4.718-3.801,8.547-8.427,8.464
		c-4.737-0.085-8.396-4.185-8.246-8.661C507.911,324.268,511.388,320.677,516.127,320.68z"/>
	<path display="none" fill="#FFFFFF" d="M417.082,321.158c3.624-0.171,7.043,0.072,9.174,3.448c1.81,2.868,1.856,5.952,0.121,8.85
		c-2.083,3.479-5.529,3.962-9.295,3.735C417.082,331.87,417.082,326.586,417.082,321.158z"/>
	<path display="none" fill="#FFFFFF" d="M353.571,328.13c0-2.337,0-4.595,0-6.961c1.9-0.085,3.84-0.307,5.177,1.384
		c0.92,1.163,0.894,2.625,0.132,3.842C357.651,328.359,355.609,328.196,353.571,328.13z"/>
	<path display="none" fill="#FFFFFF" d="M390.092,321.168c1.966-0.073,3.913-0.301,5.297,1.45c0.802,1.015,0.738,2.833-0.01,3.961
		c-0.859,1.294-2.924,1.866-5.287,1.432C390.092,325.772,390.092,323.521,390.092,321.168z"/>
	<path display="none" fill="#FFFFFF" d="M475.907,331.677c1.143-2.503,2.228-4.879,3.425-7.5c1.142,2.617,2.186,5.01,3.273,7.5
		C480.337,331.677,478.233,331.677,475.907,331.677z"/>
</g>
<path fill="#FFFFFF" d="M613.945,374.14h-386v-153h386V374.14z M228.945,373.14h384v-151h-384V373.14z"/>
</svg>
