<?xml version="1.0" encoding="utf-8"?>
<!-- Generator: Adobe Illustrator 17.0.0, SVG Export Plug-In . SVG Version: 6.00 Build 0)  -->
<!DOCTYPE svg PUBLIC "-//W3C//DTD SVG 1.1//EN" "http://www.w3.org/Graphics/SVG/1.1/DTD/svg11.dtd">
<svg version="1.1" id="Layer_1" xmlns="http://www.w3.org/2000/svg" xmlns:xlink="http://www.w3.org/1999/xlink" x="0px" y="0px"
	 width="841.89px" height="595.28px" viewBox="0 0 841.89 595.28" enable-background="new 0 0 841.89 595.28" xml:space="preserve">
<g>
	<path fill="#FEFEFE" d="M191.445,314.854c0-34.56,0-69.12,0-103.68c114.88,0,229.76,0,344.64,0c0,34.56,0,69.12,0,103.68
		C421.206,314.854,306.326,314.854,191.445,314.854z M251.437,232.059c10.82,11.288,21.386,22.311,32.106,33.495
		c0-15.777,0-31.273,0-46.815c-2.234,0-4.405,0-6.697,0c0,10.132,0,20.181,0,30.5c-10.769-11.263-21.345-22.324-32.077-33.548
		c0,15.881,0,31.47,0,47.131c2.223,0,4.403,0,6.668,0C251.437,252.65,251.437,242.546,251.437,232.059z M382.498,262.771
		c0.198,0.045,0.351,0.112,0.503,0.111c4.437-0.046,8.88,0.017,13.311-0.179c5.765-0.255,10.643-2.591,14.623-6.789
		c4.307-4.543,5.821-10.033,5.685-16.161c-0.228-10.321-7.073-18.567-17.179-20.446c-5.544-1.031-11.157-0.605-16.748-0.599
		c-0.058,0-0.116,0.099-0.196,0.171C382.498,233.49,382.498,248.121,382.498,262.771z M474.085,262.846c0-6.07,0-12.008,0-17.945
		c0.12-0.091,0.241-0.182,0.361-0.273c0.436,0.341,0.986,0.603,1.292,1.036c3.182,4.504,6.32,9.04,9.482,13.558
		c0.845,1.208,1.495,2.84,2.666,3.451c1.172,0.612,2.883,0.199,4.359,0.218c1.173,0.015,2.346,0.003,3.787,0.003
		c-4.653-6.409-9.107-12.544-13.627-18.771c0.475-0.149,0.847-0.263,1.217-0.382c5.188-1.658,8.499-6.355,8.505-12.061
		c0.005-5.756-3.134-10.193-8.464-11.878c-5.3-1.676-10.762-1.002-16.235-1.159c0,14.798,0,29.482,0,44.202
		C469.637,262.846,471.746,262.846,474.085,262.846z M327.431,244.968c0.134-0.118,0.269-0.236,0.403-0.354
		c0.432,0.359,0.968,0.644,1.28,1.087c3.82,5.423,7.617,10.862,11.388,16.319c0.432,0.624,0.873,0.918,1.653,0.893
		c1.758-0.058,3.518-0.018,5.278-0.018c0.561,0,1.122,0,1.947,0c-4.665-6.426-9.117-12.559-13.597-18.729
		c0.242-0.112,0.38-0.203,0.53-0.24c4.837-1.188,8.759-5.413,9.161-11.557c0.372-5.685-2.858-10.804-8.274-12.483
		c-1.962-0.608-4.056-0.961-6.109-1.064c-3.415-0.171-6.844-0.047-10.336-0.047c0,14.671,0,29.324,0,44.017c2.239,0,4.405,0,6.674,0
		C327.431,256.781,327.431,250.875,327.431,244.968z M196.844,218.693c0,0.608,0,1.081,0,1.554c0,8.996-0.002,17.993,0.001,26.989
		c0.003,8.776,5.675,15.232,14.355,16.347c9.87,1.268,18.351-6.148,18.362-16.07c0.01-9.156,0.002-18.312,0.002-27.469
		c0-0.425,0-0.849,0-1.323c-2.303,0-4.441,0-6.719,0c0,0.532,0,1,0,1.468c0,8.277,0.009,16.553-0.01,24.83
		c-0.003,1.276-0.075,2.558-0.214,3.826c-0.547,4.963-3.737,8.135-8.506,8.512c-5.197,0.412-9.164-2.405-10.126-7.29
		c-0.276-1.402-0.399-2.855-0.405-4.285c-0.036-8.516-0.018-17.033-0.018-25.549c0-0.502,0-1.004,0-1.539
		C201.255,218.693,199.142,218.693,196.844,218.693z M429.626,218.717c0,14.773,0,29.399,0,44.078c8.146,0,16.232,0,24.284,0
		c0-2.118,0-4.134,0-6.282c-5.91,0-11.725,0-17.563,0c0-4.918,0-9.701,0-14.621c5.713,0,11.367,0,17.079,0c0-2.158,0-4.179,0-6.366
		c-5.702,0-11.357,0-17.044,0c0-3.577,0-6.986,0-10.523c5.915,0,11.735,0,17.522,0c0-2.183,0-4.237,0-6.286
		C445.775,218.717,437.749,218.717,429.626,218.717z M526.802,228.513c1.786-1.056,3.579-2.116,5.367-3.173
		c-5.14-10.003-16.92-8.786-21.928-3.677c-4.206,4.292-4.461,10.729-0.383,15.125c1.772,1.91,4.045,3.088,6.406,4.117
		c2.193,0.956,4.425,1.848,6.532,2.972c2.82,1.504,4.028,3.952,3.719,7.175c-0.307,3.207-2.866,5.881-6.115,6.261
		c-3.811,0.445-6.83-1.288-7.867-4.582c-0.355-1.129-0.562-2.305-0.858-3.55c-2.221,0.492-4.418,0.979-6.597,1.461
		c0.714,7.099,5.501,13.129,14.131,13.06c6.561-0.052,12.219-4.097,13.637-10.158c1.659-7.093-0.58-12.295-7.015-15.609
		c-2.371-1.221-4.918-2.095-7.337-3.231c-1.142-0.536-2.293-1.178-3.223-2.013c-1.971-1.77-1.981-4.454-0.196-6.411
		c2.744-3.006,7.967-2.804,10.46,0.415C525.951,227.231,526.313,227.807,526.802,228.513z M367.133,262.843
		c0-14.78,0-29.453,0-44.139c-2.224,0-4.333,0-6.517,0c0,14.729,0,29.407,0,44.139C362.815,262.843,364.923,262.843,367.133,262.843
		z M298.817,218.718c0,14.77,0,29.391,0,44.095c2.224,0,4.398,0,6.593,0c0-14.73,0-29.382,0-44.095
		C303.196,218.718,301.059,218.718,298.817,218.718z M475.112,281.721c0,8.21,0,16.136,0,24.054c1.173,0,2.237,0,3.399,0
		c0-5.176,0-10.272,0-15.624c5.535,5.768,10.895,11.353,16.424,17.113c0-8.196,0-16.086,0-24.011c-1.163,0-2.256,0-3.51,0
		c0,5.149,0,10.221,0,15.518C485.908,293.005,480.583,287.439,475.112,281.721z M229.826,298.461
		c-0.095,0.037-0.19,0.074-0.284,0.111c-5.352-5.593-10.704-11.186-16.17-16.898c0,8.213,0,16.15,0,24.101c1.147,0,2.207,0,3.437,0
		c0-5.154,0-10.231,0-15.637c5.566,5.803,10.885,11.347,16.366,17.062c0-8.146,0-16.031,0-23.968c-1.124,0-2.183,0-3.349,0
		C229.826,288.347,229.826,293.404,229.826,298.461z M458.914,306.254c6.634-0.016,11.854-5.175,11.851-11.714
		c-0.002-6.507-5.315-11.814-11.818-11.805c-6.559,0.008-11.905,5.275-11.902,11.726C447.049,301.16,452.19,306.269,458.914,306.254
		z M356.37,282.969c0,7.814,0,15.278,0,22.741c2.63,0,5.231,0.176,7.8-0.037c5.144-0.427,9.284-4.766,9.657-9.859
		c0.451-6.148-2.654-11.013-8.155-12.114C362.692,283.103,359.573,283.197,356.37,282.969z M296.407,305.792c0-3.151,0-6.151,0-9.15
		c0.561,0.234,0.873,0.56,1.129,0.925c1.743,2.484,3.467,4.982,5.217,7.462c0.218,0.309,0.532,0.752,0.826,0.773
		c1.248,0.086,2.505,0.037,3.995,0.037c-2.414-3.334-4.655-6.429-6.926-9.565c0.291-0.109,0.473-0.176,0.655-0.245
		c2.848-1.079,4.406-3.466,4.258-6.52c-0.149-3.078-1.848-5.307-4.981-5.879c-2.483-0.453-5.053-0.433-7.65-0.627
		c0,7.763,0,15.25,0,22.79C294.079,305.792,295.141,305.792,296.407,305.792z M344.164,305.849
		c-2.407-3.322-4.655-6.423-6.904-9.528c0.746-0.352,1.353-0.573,1.893-0.904c2.148-1.317,3.045-3.332,2.996-5.772
		c-0.049-2.417-1.061-4.384-3.283-5.455c-2.996-1.443-6.215-0.968-9.341-0.986c0,7.627,0,15.087,0,22.555c1.133,0,2.187,0,3.386,0
		c0-3.098,0-6.102,0-9.107c0.096-0.041,0.191-0.081,0.286-0.122c0.27,0.294,0.576,0.563,0.804,0.886
		c1.793,2.55,3.56,5.119,5.366,7.659c0.23,0.324,0.627,0.712,0.973,0.738C341.519,305.906,342.709,305.849,344.164,305.849z
		 M433.06,305.848c-3.658-8.141-7.204-16.034-10.848-24.142c-3.799,8.162-7.476,16.062-11.24,24.149
		c1.075,0,1.946-0.037,2.811,0.012c0.69,0.039,1.087-0.177,1.357-0.851c0.489-1.221,1.13-2.381,1.614-3.603
		c0.291-0.735,0.67-1.038,1.497-1.019c2.557,0.057,5.116,0.043,7.674,0.007c0.69-0.01,1.088,0.171,1.347,0.853
		c0.496,1.305,1.063,2.584,1.659,3.846c0.144,0.305,0.502,0.691,0.789,0.715C430.743,305.901,431.776,305.848,433.06,305.848z
		 M238.709,283.215c0,7.592,0,15.077,0,22.538c4.199,0,8.293,0,12.377,0c0-1.084,0-2.065,0-3.154c-3.016,0-5.955,0-8.934,0
		c0-2.525,0-4.94,0-7.479c2.921,0,5.778,0,8.702,0c0-1.14,0-2.155,0-3.325c-2.936,0-5.824,0-8.68,0c0-1.852,0-3.548,0-5.365
		c3.026,0,5.964,0,8.906,0c0-1.142,0-2.158,0-3.214C246.928,283.215,242.86,283.215,238.709,283.215z M500.383,305.77
		c4.183,0,8.277,0,12.403,0c0-1.068,0-2.05,0-3.162c-2.993,0-5.928,0-8.893,0c0-2.541,0-4.952,0-7.512c2.935,0,5.787,0,8.628,0
		c0-1.169,0-2.186,0-3.332c-2.935,0-5.788,0-8.649,0c0-1.797,0-3.462,0-5.274c2.994,0,5.928,0,8.909,0c0-1.165,0-2.183,0-3.257
		c-4.156,0-8.249,0-12.398,0C500.383,290.752,500.383,298.209,500.383,305.77z M288.129,291.789c-2.968,0-5.826,0-8.724,0
		c0-1.804,0-3.497,0-5.313c3.015,0,5.953,0,8.903,0c0-1.173,0-2.219,0-3.245c-4.162,0-8.226,0-12.346,0c0,7.54,0,15.023,0,22.547
		c4.173,0,8.27,0,12.349,0c0-1.093,0-2.106,0-3.229c-3.03,0-5.966,0-8.886,0c0-2.523,0-4.933,0-7.466c2.956,0,5.814,0,8.704,0
		C288.129,293.966,288.129,292.975,288.129,291.789z M390.587,302.585c-3.03,0-5.968,0-8.941,0c0-2.523,0-4.935,0-7.471
		c2.936,0,5.795,0,8.66,0c0-1.173,0-2.22,0-3.375c-2.955,0-5.811,0-8.677,0c0-1.775,0-3.438,0-5.266c3.026,0,5.994,0,8.936,0
		c0-1.188,0-2.207,0-3.219c-4.174,0-8.268,0-12.385,0c0,7.54,0,15,0,22.53c4.152,0,8.25,0,12.407,0
		C390.587,304.747,390.587,303.763,390.587,302.585z M262.94,307.632c3.467-8.305,6.805-16.301,10.211-24.458
		c-1.085,0-1.996,0.052-2.897-0.016c-0.733-0.056-1.049,0.256-1.297,0.9c-0.847,2.196-1.746,4.371-2.63,6.552
		c-1.065,2.627-2.134,5.251-3.294,8.107c-0.262-0.613-0.423-0.969-0.568-1.332c-1.775-4.444-3.54-8.892-5.339-13.326
		c-0.14-0.344-0.503-0.811-0.8-0.84c-1.047-0.103-2.111-0.04-3.354-0.04C256.299,291.342,259.547,299.308,262.94,307.632z
		 M435.862,283.233c0,7.551,0,15.007,0,22.539c3.347,0,6.638,0,9.965,0c0-1.067,0-2.05,0-3.185c-2.186,0-4.318,0-6.54,0
		c0-6.533,0-12.914,0-19.354C438.124,283.233,437.057,283.233,435.862,283.233z M347.543,283.212c0,7.572,0,15.03,0,22.535
		c1.145,0,2.23,0,3.308,0c0-7.572,0-15.035,0-22.535C349.739,283.212,348.705,283.212,347.543,283.212z"/>
	<path fill="#010101" d="M251.437,232.059c0,10.487,0,20.591,0,30.763c-2.265,0-4.445,0-6.668,0c0-15.661,0-31.249,0-47.131
		c10.732,11.224,21.308,22.285,32.077,33.548c0-10.319,0-20.368,0-30.5c2.292,0,4.463,0,6.697,0c0,15.543,0,31.038,0,46.815
		C272.823,254.37,262.257,243.347,251.437,232.059z"/>
	<path fill="#010101" d="M382.498,262.771c0-14.65,0-29.28,0-43.892c0.079-0.072,0.137-0.171,0.196-0.171
		c5.59-0.006,11.204-0.432,16.748,0.599c10.106,1.879,16.951,10.125,17.179,20.446c0.135,6.128-1.378,11.618-5.685,16.161
		c-3.98,4.198-8.858,6.534-14.623,6.789c-4.431,0.196-8.873,0.133-13.311,0.179C382.848,262.883,382.695,262.816,382.498,262.771z
		 M389.212,256.555c3.764,0.039,7.409,0.166,10.892-1.135c6.557-2.449,10.33-8.796,9.702-16.238
		c-0.602-7.126-5.11-12.202-12.054-13.642c-2.835-0.588-5.675-0.525-8.54-0.43C389.212,235.64,389.212,246.024,389.212,256.555z"/>
	<path fill="#010101" d="M474.085,262.846c-2.338,0-4.447,0-6.658,0c0-14.72,0-29.404,0-44.202
		c5.473,0.157,10.935-0.517,16.235,1.159c5.33,1.686,8.469,6.123,8.464,11.878c-0.005,5.706-3.317,10.403-8.505,12.061
		c-0.37,0.118-0.742,0.233-1.217,0.382c4.521,6.227,8.975,12.362,13.627,18.771c-1.441,0-2.614,0.012-3.787-0.003
		c-1.475-0.019-3.187,0.394-4.359-0.218c-1.171-0.611-1.821-2.244-2.666-3.451c-3.162-4.518-6.3-9.054-9.482-13.558
		c-0.306-0.433-0.856-0.695-1.292-1.036c-0.12,0.091-0.241,0.182-0.361,0.273C474.085,250.838,474.085,256.776,474.085,262.846z
		 M474.108,238.957c2.876,0.049,5.584,0.072,8.093-1.203c2.508-1.274,3.377-3.493,3.344-6.143c-0.034-2.734-1.25-4.733-3.857-5.765
		c-2.441-0.966-4.979-0.847-7.581-0.731C474.108,229.741,474.108,234.275,474.108,238.957z"/>
	<path fill="#010101" d="M327.431,244.968c0,5.906,0,11.813,0,17.822c-2.269,0-4.435,0-6.674,0c0-14.693,0-29.346,0-44.017
		c3.492,0,6.921-0.125,10.336,0.047c2.052,0.103,4.147,0.456,6.109,1.064c5.415,1.679,8.646,6.798,8.274,12.483
		c-0.402,6.144-4.324,10.369-9.161,11.557c-0.151,0.037-0.288,0.129-0.53,0.24c4.48,6.171,8.931,12.303,13.597,18.729
		c-0.825,0-1.386,0-1.947,0c-1.759,0-3.52-0.04-5.278,0.018c-0.78,0.026-1.222-0.268-1.653-0.893
		c-3.772-5.457-7.569-10.896-11.388-16.319c-0.312-0.443-0.848-0.729-1.28-1.087C327.7,244.732,327.565,244.85,327.431,244.968z
		 M327.487,224.834c0,4.937,0,9.469,0,13.985c2.082,0.392,5.579,0.018,7.465-0.775c2.719-1.143,4.098-3.46,3.926-6.597
		c-0.169-3.082-1.612-5.13-4.567-5.807C332.133,225.14,329.85,225.095,327.487,224.834z"/>
	<path fill="#010101" d="M196.844,218.693c2.297,0,4.41,0,6.722,0c0,0.535,0,1.037,0,1.539c0,8.517-0.018,17.033,0.018,25.549
		c0.006,1.43,0.129,2.883,0.405,4.285c0.962,4.885,4.929,7.702,10.126,7.29c4.769-0.378,7.959-3.55,8.506-8.512
		c0.14-1.268,0.212-2.55,0.214-3.826c0.019-8.277,0.01-16.553,0.01-24.83c0-0.468,0-0.935,0-1.468c2.278,0,4.416,0,6.719,0
		c0,0.474,0,0.898,0,1.323c0,9.156,0.008,18.312-0.002,27.469c-0.011,9.923-8.492,17.338-18.362,16.07
		c-8.681-1.115-14.353-7.571-14.355-16.347c-0.003-8.996-0.001-17.993-0.001-26.989
		C196.844,219.774,196.844,219.301,196.844,218.693z"/>
	<path fill="#010101" d="M429.626,218.717c8.123,0,16.149,0,24.278,0c0,2.05,0,4.103,0,6.286c-5.787,0-11.608,0-17.522,0
		c0,3.537,0,6.947,0,10.523c5.687,0,11.342,0,17.044,0c0,2.187,0,4.208,0,6.366c-5.712,0-11.366,0-17.079,0c0,4.92,0,9.703,0,14.621
		c5.838,0,11.653,0,17.563,0c0,2.148,0,4.164,0,6.282c-8.052,0-16.138,0-24.284,0C429.626,248.116,429.626,233.49,429.626,218.717z"
		/>
	<path fill="#010101" d="M526.802,228.513c-0.489-0.706-0.851-1.282-1.266-1.818c-2.494-3.219-7.716-3.421-10.46-0.415
		c-1.786,1.957-1.775,4.641,0.196,6.411c0.93,0.835,2.081,1.477,3.223,2.013c2.418,1.136,4.966,2.01,7.337,3.231
		c6.435,3.314,8.674,8.516,7.015,15.609c-1.418,6.062-7.076,10.106-13.637,10.158c-8.63,0.069-13.417-5.961-14.131-13.06
		c2.179-0.483,4.376-0.969,6.597-1.461c0.296,1.245,0.503,2.421,0.858,3.55c1.037,3.294,4.056,5.027,7.867,4.582
		c3.249-0.38,5.808-3.054,6.115-6.261c0.308-3.223-0.9-5.671-3.719-7.175c-2.106-1.124-4.338-2.016-6.532-2.972
		c-2.361-1.029-4.634-2.207-6.406-4.117c-4.078-4.396-3.823-10.832,0.383-15.125c5.008-5.11,16.788-6.326,21.928,3.677
		C530.382,226.397,528.588,227.457,526.802,228.513z"/>
	<path fill="#020202" d="M367.133,262.843c-2.209,0-4.317,0-6.517,0c0-14.732,0-29.41,0-44.139c2.184,0,4.293,0,6.517,0
		C367.133,233.39,367.133,248.063,367.133,262.843z"/>
	<path fill="#010101" d="M298.817,218.718c2.242,0,4.379,0,6.593,0c0,14.712,0,29.365,0,44.095c-2.195,0-4.368,0-6.593,0
		C298.817,248.109,298.817,233.487,298.817,218.718z"/>
	<path fill="#010101" d="M475.112,281.721c5.471,5.718,10.796,11.284,16.313,17.051c0-5.297,0-10.369,0-15.518
		c1.254,0,2.346,0,3.51,0c0,7.925,0,15.815,0,24.011c-5.529-5.761-10.889-11.346-16.424-17.113c0,5.352,0,10.448,0,15.624
		c-1.162,0-2.226,0-3.399,0C475.112,297.856,475.112,289.93,475.112,281.721z"/>
	<path fill="#010101" d="M229.826,298.461c0-5.057,0-10.114,0-15.229c1.167,0,2.225,0,3.349,0c0,7.937,0,15.822,0,23.968
		c-5.482-5.715-10.8-11.259-16.366-17.062c0,5.406,0,10.482,0,15.637c-1.23,0-2.29,0-3.437,0c0-7.951,0-15.888,0-24.101
		c5.466,5.712,10.818,11.305,16.17,16.898C229.636,298.535,229.731,298.498,229.826,298.461z"/>
	<path fill="#010101" d="M458.914,306.254c-6.723,0.016-11.865-5.093-11.868-11.793c-0.003-6.451,5.342-11.718,11.902-11.726
		c6.503-0.008,11.815,5.299,11.818,11.805C470.767,301.079,465.548,306.238,458.914,306.254z M458.947,286.054
		c-4.739-0.003-8.216,3.588-8.375,8.331c-0.15,4.476,3.509,8.576,8.246,8.661c4.626,0.083,8.412-3.746,8.427-8.464
		C467.261,289.728,463.689,286.057,458.947,286.054z"/>
	<path fill="#010101" d="M356.37,282.969c3.202,0.228,6.321,0.134,9.302,0.731c5.501,1.101,8.606,5.966,8.155,12.114
		c-0.373,5.093-4.513,9.432-9.657,9.859c-2.569,0.213-5.171,0.037-7.8,0.037C356.37,298.247,356.37,290.783,356.37,282.969z
		 M359.902,286.532c0,5.428,0,10.712,0,16.033c3.766,0.227,7.211-0.256,9.295-3.735c1.735-2.898,1.69-5.983-0.121-8.85
		C366.945,286.604,363.526,286.361,359.902,286.532z"/>
	<path fill="#010101" d="M296.407,305.792c-1.267,0-2.328,0-3.477,0c0-7.54,0-15.027,0-22.79c2.597,0.195,5.167,0.175,7.65,0.627
		c3.133,0.571,4.832,2.8,4.981,5.879c0.148,3.054-1.411,5.441-4.258,6.52c-0.182,0.069-0.365,0.136-0.655,0.245
		c2.271,3.136,4.512,6.231,6.926,9.565c-1.49,0-2.747,0.05-3.995-0.037c-0.294-0.02-0.608-0.463-0.826-0.773
		c-1.749-2.48-3.474-4.977-5.217-7.462c-0.256-0.365-0.569-0.691-1.129-0.925C296.407,299.641,296.407,302.641,296.407,305.792z
		 M296.391,293.504c2.038,0.066,4.08,0.229,5.309-1.734c0.762-1.217,0.787-2.679-0.132-3.842c-1.337-1.691-3.277-1.469-5.177-1.384
		C296.391,288.909,296.391,291.167,296.391,293.504z"/>
	<path fill="#010101" d="M344.164,305.849c-1.455,0-2.645,0.056-3.824-0.035c-0.345-0.027-0.742-0.415-0.973-0.738
		c-1.806-2.541-3.574-5.109-5.366-7.659c-0.228-0.324-0.534-0.592-0.804-0.886c-0.096,0.041-0.191,0.081-0.286,0.122
		c0,3.004,0,6.009,0,9.107c-1.2,0-2.253,0-3.386,0c0-7.468,0-14.928,0-22.555c3.126,0.019,6.346-0.457,9.341,0.986
		c2.222,1.07,3.234,3.038,3.283,5.455c0.05,2.44-0.848,4.456-2.996,5.772c-0.54,0.331-1.147,0.552-1.893,0.904
		C339.509,299.426,341.757,302.527,344.164,305.849z M332.912,286.542c0,2.353,0,4.604,0,6.843c2.363,0.434,4.428-0.137,5.287-1.432
		c0.748-1.128,0.812-2.946,0.01-3.961C336.825,286.241,334.878,286.469,332.912,286.542z"/>
	<path fill="#010101" d="M433.06,305.848c-1.284,0-2.317,0.053-3.338-0.034c-0.287-0.024-0.645-0.41-0.789-0.715
		c-0.596-1.262-1.164-2.542-1.659-3.846c-0.259-0.683-0.657-0.863-1.347-0.853c-2.558,0.036-5.117,0.051-7.674-0.007
		c-0.827-0.018-1.205,0.284-1.497,1.019c-0.484,1.222-1.125,2.383-1.614,3.603c-0.27,0.674-0.667,0.891-1.357,0.851
		c-0.866-0.049-1.736-0.012-2.811-0.012c3.764-8.086,7.441-15.986,11.24-24.149C425.856,289.814,429.403,297.708,433.06,305.848z
		 M418.727,297.051c2.325,0,4.43,0,6.698,0c-1.086-2.49-2.131-4.884-3.273-7.5C420.955,292.172,419.87,294.548,418.727,297.051z"/>
	<path fill="#020202" d="M238.709,283.215c4.151,0,8.219,0,12.371,0c0,1.056,0,2.072,0,3.214c-2.942,0-5.88,0-8.906,0
		c0,1.817,0,3.513,0,5.365c2.855,0,5.744,0,8.68,0c0,1.17,0,2.185,0,3.325c-2.925,0-5.781,0-8.702,0c0,2.54,0,4.954,0,7.479
		c2.979,0,5.918,0,8.934,0c0,1.089,0,2.07,0,3.154c-4.084,0-8.177,0-12.377,0C238.709,298.292,238.709,290.807,238.709,283.215z"/>
	<path fill="#010101" d="M500.383,305.77c0-7.561,0-15.019,0-22.536c4.15,0,8.242,0,12.398,0c0,1.074,0,2.091,0,3.257
		c-2.982,0-5.915,0-8.909,0c0,1.812,0,3.476,0,5.274c2.861,0,5.714,0,8.649,0c0,1.146,0,2.163,0,3.332c-2.842,0-5.693,0-8.628,0
		c0,2.56,0,4.97,0,7.512c2.964,0,5.9,0,8.893,0c0,1.112,0,2.095,0,3.162C508.66,305.77,504.566,305.77,500.383,305.77z"/>
	<path fill="#010101" d="M288.129,291.789c0,1.186,0,2.177,0,3.294c-2.89,0-5.749,0-8.704,0c0,2.533,0,4.943,0,7.466
		c2.92,0,5.856,0,8.886,0c0,1.123,0,2.137,0,3.229c-4.079,0-8.176,0-12.349,0c0-7.524,0-15.007,0-22.547c4.119,0,8.183,0,12.346,0
		c0,1.026,0,2.072,0,3.245c-2.95,0-5.888,0-8.903,0c0,1.816,0,3.509,0,5.313C282.303,291.789,285.161,291.789,288.129,291.789z"/>
	<path fill="#010101" d="M390.587,302.585c0,1.178,0,2.162,0,3.199c-4.157,0-8.255,0-12.407,0c0-7.53,0-14.99,0-22.53
		c4.118,0,8.211,0,12.385,0c0,1.011,0,2.03,0,3.219c-2.942,0-5.909,0-8.936,0c0,1.828,0,3.49,0,5.266c2.865,0,5.722,0,8.677,0
		c0,1.155,0,2.202,0,3.375c-2.865,0-5.724,0-8.66,0c0,2.536,0,4.948,0,7.471C384.619,302.585,387.556,302.585,390.587,302.585z"/>
	<path fill="#010101" d="M262.94,307.632c-3.394-8.324-6.641-16.291-9.97-24.454c1.243,0,2.307-0.063,3.354,0.04
		c0.297,0.029,0.66,0.496,0.8,0.84c1.8,4.434,3.564,8.882,5.339,13.326c0.145,0.362,0.306,0.719,0.568,1.332
		c1.161-2.855,2.23-5.48,3.294-8.107c0.884-2.181,1.784-4.356,2.63-6.552c0.249-0.644,0.564-0.956,1.297-0.9
		c0.901,0.069,1.812,0.016,2.897,0.016C269.746,291.331,266.407,299.328,262.94,307.632z"/>
	<path fill="#020202" d="M435.862,283.233c1.195,0,2.262,0,3.424,0c0,6.439,0,12.82,0,19.354c2.222,0,4.354,0,6.54,0
		c0,1.135,0,2.118,0,3.185c-3.326,0-6.617,0-9.965,0C435.862,298.241,435.862,290.784,435.862,283.233z"/>
	<path fill="#030303" d="M347.543,283.212c1.162,0,2.196,0,3.308,0c0,7.5,0,14.963,0,22.535c-1.077,0-2.163,0-3.308,0
		C347.543,298.242,347.543,290.784,347.543,283.212z"/>
	<path fill="#FFFFFF" d="M389.212,256.555c0-10.531,0-20.915,0-31.446c2.864-0.095,5.705-0.157,8.54,0.43
		c6.945,1.44,11.453,6.516,12.054,13.642c0.628,7.442-3.145,13.79-9.702,16.238C396.621,256.721,392.976,256.594,389.212,256.555z"
		/>
	<path fill="#FFFFFF" d="M474.108,238.957c0-4.682,0-9.216,0-13.843c2.602-0.116,5.14-0.235,7.581,0.731
		c2.607,1.032,3.823,3.031,3.857,5.765c0.033,2.651-0.835,4.869-3.344,6.143C479.692,239.028,476.984,239.006,474.108,238.957z"/>
	<path fill="#FFFFFF" d="M327.487,224.834c2.363,0.262,4.646,0.307,6.824,0.806c2.956,0.677,4.398,2.725,4.567,5.807
		c0.172,3.137-1.207,5.455-3.926,6.597c-1.886,0.793-5.384,1.167-7.465,0.775C327.487,234.303,327.487,229.77,327.487,224.834z"/>
	<path fill="#FFFFFF" d="M458.947,286.054c4.742,0.003,8.314,3.674,8.298,8.527c-0.016,4.718-3.801,8.547-8.427,8.464
		c-4.737-0.085-8.396-4.185-8.246-8.661C450.731,289.642,454.208,286.051,458.947,286.054z"/>
	<path fill="#FFFFFF" d="M359.902,286.532c3.624-0.171,7.043,0.072,9.174,3.448c1.81,2.868,1.856,5.952,0.121,8.85
		c-2.083,3.479-5.529,3.962-9.295,3.735C359.902,297.244,359.902,291.96,359.902,286.532z"/>
	<path fill="#FFFFFF" d="M296.391,293.504c0-2.337,0-4.595,0-6.961c1.9-0.085,3.84-0.307,5.177,1.384
		c0.92,1.163,0.894,2.625,0.132,3.842C300.471,293.733,298.429,293.57,296.391,293.504z"/>
	<path fill="#FEFEFE" d="M332.912,286.542c1.966-0.073,3.913-0.301,5.297,1.45c0.802,1.015,0.738,2.833-0.01,3.961
		c-0.859,1.294-2.924,1.866-5.287,1.432C332.912,291.146,332.912,288.895,332.912,286.542z"/>
	<path fill="#FFFFFF" d="M418.727,297.051c1.143-2.503,2.228-4.879,3.425-7.5c1.142,2.617,2.186,5.01,3.273,7.5
		C423.157,297.051,421.053,297.051,418.727,297.051z"/>
</g>
<path display="none" fill="#030203" d="M605.604,323.5h-386v-153h386V323.5z M220.604,322.5h384v-151h-384V322.5z"/>
</svg>
